{"title":"Saving.Mr.Wu.2015.BRRip.480p.x264.AAC-VYTO [P2PDL]","uid":13091644,"size":401134044,"categoryP":"video","categoryS":"movies","magnet":"?xt=urn:btih:df62355d857e73e0a94f77db08a4aadf955cee3f&amp;dn=Saving.Mr.Wu.2015.BRRip.480p.x264.AAC-VYTO+%5BP2PDL%5D&amp;tr=udp%3A%2F%2Ftracker.leechers-paradise.org%3A6969&amp;tr=udp%3A%2F%2Fzer0day.ch%3A1337&amp;tr=udp%3A%2F%2Fopen.demonii.com%3A1337&amp;tr=udp%3A%2F%2Ftracker.coppersurfer.tk%3A6969&amp;tr=udp%3A%2F%2Fexodus.desync.com%3A6969","seeders":0,"leechers":1,"uploader":"VYTOP2PDL","files":7,"time":1451053080,"description":"Saving.Mr.Wu.2015.BRRip.480p.x264.AAC-VYTO\r\n\r\n\r\nGenre: Action, Crime, Drama    \nhttp://www.imdb.com/title/tt4819560/\r\n\r\n\r\nFormat                                   : MPEG-4\r\nFile size                                : 376 MiB\r\nDuration                                 : 1h 46mn\r\nOverall bit rate                         : 496 Kbps\r\n\r\nVideo\r\nFormat                                   : AVC\r\nBit rate                                 : 461 Kbps\r\nWidth                                    : 720 pixels\r\nHeight                                   : 304 pixels\r\nDisplay aspect ratio                     : 2.35:1\r\nFrame rate mode                          : Constant\r\nFrame rate                               : 24.000 fps\r\nBit depth                                : 8 bits\r\nStream size                              : 350 MiB (93%)\r\nWriting library                          : x264\r\n\r\nAudio\r\nFormat                                   : AAC\r\nBit rate mode                            : Variable\r\nBit rate                                 : 31.9 Kbp\r\nChannel(s)                               : 2 channels \r\nChannel positions                        : Front: L R \r\nSampling rate                            : 48.0 KHz \r\nFrame rate                               : 23.438 fps\r\nStream size                              : 24.2 MiB (6%)\r\nLanguage                                 : Chinese\r\n\r\nSubtitle                                 : Yes (English)\r\n\r\nScreen Shots: (Click to view)\r\n \nhttp://ititli.com/RS \nhttp://ititli.com/RZ \nhttp://ititli.com/Rc \nhttp://ititli.com/Ri \nhttp://ititli.com/Rp \nhttp://ititli.com/RD \nhttp://ititli.com/Ra \nhttp://ititli.com/Rb \nhttp://ititli.com/Rz\r\n\r\n----------------------------------------------------------------------------------------------------\r\n\r\n\r\nEncoder Notes: Looking For Early Access To Anything You Can Provide WEBDL, DVDScr, DVDR, BluRay,\r\nDirect Audio, Music Releases and Seedboxes. If You Got anything to offer please contact us.\r\n\r\nSupport us by donating BC - 1FgwdzPsd1y25Gea8wP1qni35uGCtmkRCD\r\n\r\nSend some love!\r\nFind us and join us!","torrent":{"xt":"urn:btih:df62355d857e73e0a94f77db08a4aadf955cee3f","amp;dn":"Saving.Mr.Wu.2015.BRRip.480p.x264.AAC-VYTO+%5BP2PDL%5D","amp;tr":["udp%3A%2F%2Ftracker.leechers-paradise.org%3A6969","udp%3A%2F%2Fzer0day.ch%3A1337","udp%3A%2F%2Fopen.demonii.com%3A1337","udp%3A%2F%2Ftracker.coppersurfer.tk%3A6969","udp%3A%2F%2Fexodus.desync.com%3A6969"],"infoHash":"df62355d857e73e0a94f77db08a4aadf955cee3f","infoHashBuffer":{"type":"Buffer","data":[223,98,53,93,133,126,115,224,169,79,119,219,8,164,170,223,149,92,238,63]},"announce":[],"urlList":[]}}